# xmcd
#
# Track frame offsets:
#	150
#	13743
#	28349
#	47623
#	58437
#	76205
#	87310
#	102694
#	119866
#	133213
#	148194
#	164696
#
# Disc length: 2461 seconds
# Revision: 0
# Processed by: cddbd v1.5.2PL0 Copyright (c) Steve Scherf et al.
# Submitted via: dBpowerAMP V12.0
#
DISCID=bd099b0c
DTITLE=Josh Williams - Modern Day Man
DYEAR=2016
DGENRE=Country
TTITLE0=Queen of the County Fair
TTITLE1=Modern Day Man
TTITLE2=The Great Divide
TTITLE3=Girl From the Canyon
TTITLE4=Let It Go
TTITLE5=Another Town
TTITLE6=Mordecai
TTITLE7=Prodigal Son
TTITLE8=Lonesome Lesson Learned
TTITLE9=God’s Plan
TTITLE10=Always Have, Always Will
TTITLE11=Sweet Little Boy
EXTD=
EXTT0=
EXTT1=
EXTT2=
EXTT3=
EXTT4=
EXTT5=
EXTT6=
EXTT7=
EXTT8=
EXTT9=
EXTT10=
EXTT11=
PLAYORDER=
